<svg aria-hidden="true" style="position: absolute; width: 0; height: 0; overflow: hidden;" version="1.1" xmlns="http://www.w3.org/2000/svg" xmlns:xlink="http://www.w3.org/1999/xlink">
<defs>
<symbol id="clients" viewBox="0 0 36 32">
<path fill="#a3acb5" style="fill: var(--color1, #a3acb5)" d="M36.349 29.523l-1.445-5.029c-0.035-0.107-0.091-0.199-0.165-0.274l0 0c-0.908-2.724-3.090-4.796-5.821-5.533l-0.059-0.014-0.412-0.069c-0.133-0.037-0.286-0.058-0.444-0.058-0.524 0-0.994 0.235-1.309 0.605l-0.002 0.002c-1.518 1.724-3.438 1.861-5.468 1.861s-3.95-0.137-5.468-1.861c-0.316-0.372-0.784-0.606-1.306-0.606-0.156 0-0.308 0.021-0.452 0.060l0.012-0.003-0.421 0.102c-2.12 0.578-3.868 1.896-4.991 3.652l-0.020 0.034h-4.334c-0.003 0-0.007 0.001-0.010 0.001-0.026 0-0.049-0.013-0.063-0.033l-0-0c-0.011-0.039-0.021-0.086-0.027-0.134l-0-0.005 0.887-3.2c0.796-2.515 2.304-3.274 5.267-4.030 0.119-0.030 0.222-0.090 0.302-0.173l0-0c0.232 0.193 0.493 0.365 0.772 0.506l0.023 0.011c0.074 0.045 0.163 0.071 0.258 0.071 0.019 0 0.037-0.001 0.055-0.003l-0.002 0c0.264-0.007 0.492-0.157 0.611-0.374l0.002-0.004c0.048-0.091 0.075-0.199 0.075-0.314 0-0.267-0.152-0.499-0.373-0.614l-0.004-0.002c-1.582-0.823-2.716-3.169-2.716-5.578 0.005-2.142 1.736-3.878 3.876-3.892h0.001c0.419 0.004 0.821 0.067 1.201 0.181l-0.031-0.008c-0.37 0.886-0.585 1.915-0.585 2.995 0 0.001 0 0.001 0 0.002v-0c0 5.892 3.539 10.851 7.736 10.851 4.124 0 7.773-5.062 7.773-10.851 0-0.010 0-0.021 0-0.033 0-4.282-3.471-7.753-7.753-7.753-2.719 0-5.111 1.399-6.494 3.517l-0.018 0.030c-0.543-0.196-1.169-0.309-1.822-0.309-0.002 0-0.005 0-0.007 0h0c-1.864 0.011-3.496 0.99-4.422 2.458l-0.013 0.022c-0.057-0.056-0.123-0.103-0.197-0.137l-0.004-0.002c-0.447-0.239-0.977-0.379-1.54-0.379-0.028 0-0.055 0-0.083 0.001l0.004-0c-0.016-0-0.035-0-0.054-0-1.889 0-3.421 1.532-3.421 3.421 0 0.008 0 0.016 0 0.025v-0.001c0 0 0 0.001 0 0.001 0 1.091 0.295 2.113 0.811 2.99l-0.015-0.028c-1.582 0.412-2.99 1.033-3.649 3.134l-0.549 1.999c-0.029 0.096-0.045 0.207-0.045 0.321 0 0.64 0.519 1.16 1.159 1.16 0.007 0 0.014-0 0.021-0h2.651c-0.037 0.139-0.101 0.274-0.137 0.412l-0.896 3.24c-0.029 0.111-0.046 0.239-0.046 0.371 0 0.829 0.664 1.503 1.489 1.519l0.002 0h3.639c-0.076 0.185-0.157 0.425-0.226 0.671l-0.012 0.051-1.445 5.065c-0.039 0.146-0.062 0.314-0.062 0.488 0 0.453 0.154 0.871 0.412 1.203l-0.003-0.004c0.349 0.46 0.894 0.755 1.508 0.759h26.437c0.002 0 0.004 0 0.007 0 0.617 0 1.164-0.296 1.508-0.754l0.004-0.005c0.258-0.324 0.414-0.739 0.414-1.191 0-0.19-0.028-0.373-0.079-0.547l0.003 0.014zM15.829 4.889c0.041-0.038 0.075-0.083 0.099-0.134l0.001-0.003c0.037-0.035 0.037-0.104 0.073-0.138 1.089-1.945 3.136-3.238 5.485-3.238 0.004 0 0.008 0 0.011 0h-0.001c2.841 0.014 5.244 1.871 6.077 4.435l0.013 0.045c-0.185 0.037-0.397 0.059-0.614 0.059-1.074 0-2.026-0.522-2.616-1.325l-0.006-0.009c-0.122-0.172-0.321-0.283-0.545-0.283-0.157 0-0.302 0.054-0.416 0.146l0.001-0.001c-0.12 0.079-0.206 0.2-0.237 0.342l-0.001 0.004c-0.037 0.034-0.037 0.069-0.073 0.101-0.96 1.965-4.197 2.792-7.873 2.067 0.11-0.771 0.328-1.468 0.64-2.111l-0.018 0.042zM17.749 8.576c2.752 0 5.020-0.861 6.191-2.481 0.809 0.727 1.884 1.172 3.063 1.172h0c0.305-0.001 0.602-0.038 0.885-0.108l-0.025 0.005c0.018 0.146 0.029 0.316 0.029 0.488 0 0.034-0 0.069-0.001 0.103l0-0.005c0 5.064-2.99 9.51-6.392 9.51-3.265 0-6.118-4.098-6.355-8.921 0.768 0.151 1.65 0.237 2.553 0.237 0.019 0 0.038-0 0.056-0h-0.003zM1.454 16.843l0.485-1.721c0.411-1.414 1.271-1.829 2.99-2.24 0.106-0.025 0.198-0.073 0.275-0.138l-0.001 0.001c0.152 0.128 0.323 0.243 0.506 0.338l0.015 0.007c0.072 0.044 0.16 0.070 0.253 0.070 0.017 0 0.034-0.001 0.051-0.003l-0.002 0c0.268-0.005 0.5-0.156 0.62-0.376l0.002-0.004c0.048-0.093 0.076-0.203 0.076-0.32 0-0.259-0.139-0.486-0.347-0.609l-0.003-0.002c-0.943-0.685-1.55-1.784-1.55-3.025 0-0.062 0.002-0.123 0.004-0.184l-0 0.009c-0-0.006-0-0.014-0-0.021 0-1.15 0.932-2.082 2.082-2.082 0.004 0 0.008 0 0.013 0h-0.001c0.018-0.001 0.040-0.001 0.061-0.001 0.344 0 0.666 0.090 0.945 0.248l-0.010-0.005c0.080 0.037 0.174 0.061 0.272 0.068l0.003 0c-0.173 0.493-0.273 1.061-0.274 1.652v0c-0 0.012-0 0.027-0 0.042 0 1.952 0.631 3.757 1.7 5.221l-0.018-0.025c-2.057 0.518-3.877 1.205-5.084 3.099h-3.063zM34.94 30.419c-0.109 0.126-0.268 0.205-0.446 0.205-0.001 0-0.001 0-0.002 0h-26.436c-0.005 0-0.012 0-0.018 0-0.303 0-0.549-0.246-0.549-0.549 0-0.050 0.007-0.098 0.019-0.144l-0.001 0.004 1.445-5.029c0.702-2.386 2.573-4.216 4.935-4.847l0.049-0.011 0.412-0.103c0.016-0.002 0.035-0.003 0.054-0.003 0.13 0 0.247 0.054 0.33 0.141l0 0c1.884 2.172 4.225 2.343 6.492 2.343s4.609-0.171 6.502-2.343c0.080-0.090 0.197-0.147 0.326-0.147 0.030 0 0.060 0.003 0.088 0.009l-0.003-0 0.412 0.103c2.404 0.654 4.27 2.479 4.971 4.808l0.013 0.050 0.622 2.135c0.022 0.096 0.070 0.178 0.137 0.241l0 0 0.75 2.619c0.009 0.042 0.014 0.090 0.014 0.139 0 0.141-0.043 0.273-0.116 0.381l0.002-0.002z"></path>
</symbol>
<symbol id="healthy-head" viewBox="0 0 20 32">
<path fill="#a3acb5" style="fill: var(--color1, #a3acb5)" d="M17.171 19.914l-6.868-2.352c-0.046-0.017-0.1-0.026-0.156-0.026s-0.11 0.010-0.159 0.028l0.003-0.001-4.941 1.691c-0.188 0.063-0.322 0.239-0.322 0.445 0 0.054 0.009 0.106 0.026 0.155l-0.001-0.003c0.069 0.186 0.245 0.315 0.451 0.315 0.056 0 0.111-0.010 0.161-0.028l-0.003 0.001 4.784-1.639 6.369 2.185c-0.138 1.325-0.447 2.539-0.906 3.676l0.032-0.090c-1.106 2.813-3.013 5.112-5.44 6.675l-0.055 0.033c-2.481-1.596-4.389-3.895-5.462-6.614l-0.033-0.094c-0.478-1.152-0.798-2.486-0.895-3.883l-0.002-0.040c-0.010-0.254-0.218-0.457-0.474-0.457-0.001 0-0.001 0-0.002 0h-0.016c-0.255 0.004-0.461 0.212-0.461 0.468 0 0.003 0 0.007 0 0.010v-0c0.096 1.535 0.434 2.966 0.977 4.29l-0.033-0.090c1.219 3.115 3.361 5.648 6.086 7.325l0.064 0.037c0.071 0.045 0.157 0.071 0.25 0.071s0.179-0.026 0.252-0.072l-0.002 0.001c2.79-1.714 4.932-4.247 6.115-7.262l0.035-0.101c0.51-1.235 0.849-2.665 0.942-4.161l0.002-0.039c0-0.003 0-0.006 0-0.009 0-0.206-0.133-0.38-0.317-0.443l-0.003-0.001zM13.245 22.561c-0.086-0.085-0.205-0.137-0.336-0.137s-0.249 0.052-0.336 0.137l0-0-2.95 2.903-1.756-1.726c-0.086-0.085-0.205-0.137-0.336-0.137s-0.249 0.052-0.336 0.137l0-0c-0.087 0.084-0.141 0.202-0.141 0.332s0.054 0.248 0.141 0.332l0 0 2.092 2.058c0.086 0.085 0.205 0.138 0.336 0.138s0.249-0.053 0.336-0.138l-0 0 3.286-3.235c0.087-0.084 0.14-0.202 0.14-0.332s-0.054-0.248-0.14-0.332l-0-0zM18.622 15.891l-3.856-1.898c-0.348-0.169-0.583-0.519-0.585-0.924v-1.819c0.943-0.974 1.526-2.302 1.53-3.766v-3.006c0-2.47-2.498-4.478-5.565-4.478s-5.565 2.007-5.565 4.478v3.006c0.004 1.465 0.587 2.793 1.531 3.768l-0.001-0.001v1.818c-0.002 0.405-0.238 0.755-0.579 0.921l-0.006 0.003-3.856 1.898c-0.996 0.489-1.67 1.496-1.67 2.66v0 2.961c0.007 0.814 0.668 1.47 1.483 1.47 0.003 0 0.006 0 0.008-0h-0c0.259 0 0.468-0.21 0.468-0.468s-0.21-0.468-0.468-0.468v0c-0 0-0.001 0-0.002 0-0.295 0-0.535-0.239-0.537-0.534v-2.961c0-0 0-0.001 0-0.001 0-0.798 0.463-1.488 1.135-1.815l0.012-0.005 3.856-1.9c0.659-0.324 1.106-0.991 1.108-1.761v-1.026c0.094 0.065 0.195 0.126 0.297 0.184 0.069 0.040 0.152 0.064 0.241 0.064 0.175 0 0.329-0.093 0.414-0.233l0.001-0.002c0.037-0.066 0.059-0.145 0.059-0.229 0-0.175-0.095-0.328-0.237-0.41l-0.002-0.001c-1.379-0.793-2.294-2.255-2.302-3.932v-3.006c0-1.951 2.068-3.539 4.613-3.539s4.613 1.587 4.613 3.539v3.006c-0.008 1.678-0.924 3.14-2.28 3.922l-0.022 0.012c-0.146 0.079-0.244 0.231-0.244 0.406 0 0.086 0.024 0.167 0.065 0.236l-0.001-0.002c0.086 0.142 0.24 0.235 0.415 0.235 0.089 0 0.172-0.024 0.243-0.065l-0.002 0.001c0.101-0.059 0.203-0.12 0.297-0.185v1.026c0.002 0.771 0.449 1.437 1.097 1.756l0.011 0.005 3.856 1.9c0.684 0.333 1.147 1.022 1.147 1.82 0 0 0 0.001 0 0.002v-0 2.961c-0.002 0.295-0.241 0.534-0.537 0.534-0.001 0-0.001 0-0.002 0h0c-0.259 0-0.468 0.21-0.468 0.468s0.21 0.468 0.468 0.468v0c0.002 0 0.005 0 0.008 0 0.815 0 1.476-0.657 1.483-1.47v-2.962c-0-1.164-0.674-2.171-1.653-2.652l-0.017-0.008z"></path>
</symbol>
<symbol id="number-circle" viewBox="0 0 32 32">
<path fill="#a3acb5" style="fill: var(--color1, #a3acb5)" d="M14.761 20.836c0.879-0.294 1.643-0.679 2.338-1.155l-0.032 0.021c2.581-1.746 4.256-4.663 4.256-7.971 0-5.298-4.294-9.592-9.592-9.592s-9.592 4.294-9.592 9.592c0 3.589 1.971 6.717 4.889 8.362l0.048 0.025h0.008c0.688 0.393 1.484 0.713 2.325 0.92l0.064 0.013h0.008c0.671 0.174 1.442 0.273 2.236 0.273 0.004 0 0.009 0 0.013 0h-0.001c0.009 0 0.020 0 0.030 0 1.073 0 2.105-0.179 3.067-0.508l-0.067 0.020zM9.733 20.018c-0.807-0.194-1.518-0.48-2.172-0.854l0.040 0.021c-2.642-1.484-4.398-4.268-4.398-7.463 0-4.711 3.819-8.53 8.53-8.53s8.53 3.819 8.53 8.53c0 2.943-1.49 5.538-3.758 7.071l-0.030 0.019c-0.589 0.404-1.267 0.746-1.989 0.991l-0.059 0.017h-0.008c-0.802 0.275-1.725 0.434-2.686 0.434-0.71 0-1.4-0.087-2.060-0.25l0.059 0.012zM23.037 8.612c-1.412-5.005-5.938-8.612-11.306-8.612-6.477 0-11.727 5.251-11.727 11.727 0 4.13 2.135 7.762 5.362 9.852l0.046 0.028c-0.378 0.863-0.598 1.869-0.598 2.926 0 4.119 3.339 7.457 7.457 7.457 2.736 0 5.129-1.474 6.426-3.671l0.019-0.035c0.934 0.314 2.010 0.496 3.129 0.496 5.59 0 10.122-4.532 10.122-10.122 0-5.17-3.876-9.435-8.881-10.047l-0.049-0.005zM1.066 11.73c0.001-5.89 4.775-10.664 10.665-10.664 4.999 0 9.195 3.439 10.35 8.081l0.015 0.073c0.191 0.723 0.3 1.553 0.3 2.409 0 0.035-0 0.070-0.001 0.106l0-0.005c0 0.002 0 0.004 0 0.006 0 3.593-1.779 6.77-4.504 8.699l-0.033 0.022c-0.509 0.365-1.089 0.702-1.7 0.981l-0.065 0.027c-0.629 0.291-1.364 0.536-2.129 0.698l-0.069 0.012c-0.241 0.050-0.491 0.091-0.741 0.123h-0.025c-0.409 0.060-0.882 0.094-1.363 0.094-0.013 0-0.025-0-0.038-0h0.002c-5.89-0.001-10.664-4.776-10.665-10.666v-0zM12.264 30.927c-0.006 0-0.013 0-0.020 0-3.515 0-6.366-2.845-6.374-6.358v-0.001c-0-0.012-0-0.027-0-0.042 0-0.863 0.175-1.684 0.49-2.432l-0.015 0.041c1.537 0.839 3.366 1.332 5.31 1.332 0.027 0 0.054-0 0.080-0l-0.004 0c0.422-0.002 0.836-0.027 1.243-0.072l-0.053 0.005c0.812 1.515 1.943 2.763 3.311 3.686l0.036 0.023c0.208 0.137 0.416 0.265 0.633 0.385l0.166 0.093c0.192 0.1 0.375 0.197 0.566 0.286 0.025 0.010 0.050 0.025 0.075 0.035-1.141 1.823-3.139 3.017-5.415 3.017-0.011 0-0.021-0-0.032-0h0.002zM21.863 27.728c-0.008 0-0.018 0-0.028 0-1.145 0-2.24-0.217-3.246-0.611l0.060 0.021c-0.684-0.259-1.275-0.569-1.82-0.939l0.030 0.019c-0.285-0.194-0.529-0.379-0.764-0.575l0.014 0.012c-0.042-0.035-0.083-0.066-0.125-0.102-0.225-0.194-0.441-0.4-0.649-0.614-0.042-0.043-0.075-0.083-0.117-0.129-0.201-0.212-0.395-0.44-0.576-0.677l-0.015-0.020-0.050-0.069c-0.175-0.24-0.341-0.486-0.491-0.741-0.017-0.024-0.025-0.047-0.042-0.069l0.042-0.008c0.050-0.010 0.1-0.024 0.15-0.034 0.2-0.043 0.391-0.092 0.591-0.144l0.241-0.070c0.175-0.050 0.35-0.109 0.516-0.166 0.075-0.027 0.15-0.051 0.225-0.078 0.241-0.091 0.483-0.184 0.716-0.29 0.747-0.338 1.386-0.709 1.984-1.135l-0.035 0.024c3.032-2.145 4.988-5.638 4.988-9.587 0-0.714-0.064-1.413-0.186-2.092l0.011 0.071c4.331 0.733 7.587 4.456 7.587 8.94 0 4.987-4.028 9.033-9.008 9.061h-0.003zM12.264 28.795c-2.354-0.005-4.26-1.913-4.263-4.267v-0h-1.066c0.001 2.943 2.386 5.329 5.328 5.333h0c0.005 0 0.011 0 0.017 0 0.859 0 1.67-0.206 2.386-0.571l-0.030 0.014-0.475-0.955c-0.549 0.279-1.197 0.442-1.883 0.442-0.005 0-0.011 0-0.016-0h0.001zM21.33 24.528h1.066v2.135h-1.066v-2.138zM18.325 25.86l-0.924-0.535 1.066-1.847 0.924 0.535zM25.402 25.86l-1.066-1.848 0.924-0.533 1.066 1.848zM28.524 23.127l-1.84-1.067 0.533-0.923 1.84 1.066zM27.733 18.132h2.131v1.067h-2.131v-1.072zM28.524 14.205l0.533 0.922-1.848 1.067-0.533-0.929zM25.26 13.852l-0.924-0.533 1.066-1.848 0.924 0.533zM14.403 17.066c-0-0.294-0.239-0.533-0.533-0.535h-1.607v-10.136c0-0.001 0-0.002 0-0.003 0-0.293-0.238-0.531-0.531-0.531-0.147 0-0.28 0.060-0.376 0.156l-2.398 2.399c-0.093 0.096-0.15 0.226-0.15 0.37 0 0.294 0.238 0.532 0.532 0.532 0.143 0 0.272-0.056 0.367-0.147l-0 0 1.49-1.489v8.844h-1.599c-0.006-0-0.014-0-0.021-0-0.294 0-0.533 0.239-0.533 0.533s0.239 0.533 0.533 0.533c0.007 0 0.015-0 0.022-0l-0.001 0h4.271c0.293-0.001 0.531-0.238 0.533-0.531v-0z"></path>
</symbol>
<symbol id="form-telephone" viewBox="0 0 28 32">
<path fill="#e87845" style="fill: var(--color1, #e87845)" d="M23.873 20.186c-0.493-0.7-1.249-1.186-2.121-1.316l-0.017-0.002c-0.097-0.010-0.21-0.016-0.323-0.016-0.807 0-1.545 0.292-2.115 0.776l0.005-0.004-2.38 1.852c-0.161-0.118-0.336-0.229-0.484-0.334-0.229-0.152-0.444-0.292-0.632-0.441-1.922-1.615-3.551-3.497-4.851-5.603l-0.057-0.1c-0.579-0.885-1.076-1.903-1.438-2.982l-0.027-0.094c0.605-0.434 1.183-0.894 1.748-1.345 0.202-0.161 0.417-0.335 0.632-0.5 0.831-0.563 1.369-1.503 1.369-2.568 0-0.795-0.3-1.521-0.794-2.069l0.002 0.003-1.614-2.056c-0.188-0.233-0.377-0.472-0.551-0.713-0.35-0.468-0.726-0.941-1.116-1.404-0.5-0.674-1.249-1.139-2.108-1.261l-0.017-0.002c-0.099-0.010-0.215-0.016-0.331-0.016-0.792 0-1.52 0.272-2.096 0.728l0.007-0.005-0.013 0.012-2.568 2.017c-0.93 0.711-1.593 1.731-1.837 2.904l-0.006 0.032c-0.107 0.599-0.169 1.288-0.169 1.991 0 1.099 0.15 2.164 0.43 3.174l-0.020-0.083c0.898 3.489 2.307 6.551 4.167 9.282l-0.065-0.102c2.502 3.841 5.687 7.021 9.411 9.441l0.123 0.075c1.628 1.12 3.536 1.973 5.591 2.443l0.111 0.021c0.148 0.020 0.296 0.047 0.43 0.063 0.224 0.035 0.483 0.055 0.746 0.055 1.28 0 2.451-0.47 3.349-1.246l-0.006 0.006c0.006-0.013 0.015-0.024 0.027-0.032l0-0c0.4-0.362 0.834-0.712 1.288-1.037l0.044-0.030c0.323-0.239 0.645-0.489 0.982-0.758 0.684-0.525 1.158-1.295 1.289-2.178l0.002-0.018c0.012-0.103 0.019-0.222 0.019-0.343 0-0.796-0.292-1.524-0.775-2.082l0.003 0.004zM25.42 27.541c-0.013 0-0.013 0 0 0-0.296 0.246-0.605 0.472-0.928 0.718-0.542 0.394-1.015 0.78-1.466 1.19l0.014-0.012c-0.572 0.497-1.325 0.8-2.148 0.8-0.182 0-0.36-0.015-0.533-0.043l0.019 0.003c-0.108-0.015-0.215-0.027-0.309-0.044-1.922-0.444-3.614-1.21-5.104-2.245l0.048 0.032c-3.624-2.35-6.625-5.343-8.912-8.845l-0.070-0.115c-1.685-2.472-3.011-5.35-3.817-8.438l-0.043-0.193c-0.236-0.792-0.371-1.701-0.371-2.642 0-0.582 0.052-1.152 0.151-1.705l-0.009 0.058c0.148-0.774 0.572-1.43 1.162-1.877l0.008-0.006 2.582-2.004c0.265-0.221 0.61-0.355 0.986-0.355 0.032 0 0.063 0.001 0.094 0.003l-0.004-0c0.386 0.071 0.711 0.287 0.925 0.587l0.003 0.004c0.004 0.007 0.009 0.015 0.013 0.024l0.001 0.001c0.363 0.426 0.713 0.871 1.062 1.345 0.188 0.239 0.377 0.479 0.565 0.729l1.614 2.049c0.253 0.236 0.411 0.572 0.411 0.945 0 0.484-0.266 0.906-0.66 1.127l-0.007 0.003c-0.229 0.176-0.43 0.348-0.659 0.511-0.632 0.504-1.237 0.978-1.883 1.429-0.015 0.008-0.029 0.016-0.041 0.026l0-0c-0.355 0.252-0.584 0.661-0.584 1.125 0 0.126 0.017 0.248 0.049 0.364l-0.002-0.010c0 0.026 0.013 0.044 0.013 0.062 0.433 1.446 1.024 2.706 1.77 3.857l-0.035-0.058h0.013c1.461 2.383 3.22 4.414 5.26 6.121l0.039 0.031c0.226 0.181 0.481 0.363 0.745 0.53l0.035 0.021c0.239 0.151 0.441 0.295 0.634 0.448l-0.016-0.012c0.023 0.018 0.049 0.036 0.077 0.053l0.004 0.002c0.223 0.164 0.503 0.262 0.806 0.262 0.352 0 0.673-0.133 0.916-0.351l-0.001 0.001 2.582-2.017c0.274-0.239 0.634-0.384 1.029-0.384 0.016 0 0.033 0 0.049 0.001l-0.002-0c0.384 0.078 0.706 0.301 0.911 0.608l0.003 0.005 0.013 0.009 3.254 4.151c0.25 0.244 0.405 0.585 0.405 0.962 0 0.49-0.262 0.919-0.654 1.154l-0.006 0.003z"></path>
</symbol>
<symbol id="form_name" viewBox="0 0 26 32">
<path fill="#e87845" style="fill: var(--color1, #e87845)" d="M13.106 17.252h0.209c0.027 0 0.058 0.001 0.089 0.001 1.771 0 3.36-0.781 4.44-2.018l0.006-0.007c2.463-2.879 2.059-7.808 2.017-8.278 0.004-0.083 0.006-0.18 0.006-0.277 0-2.392-1.232-4.496-3.096-5.713l-0.026-0.016c-0.995-0.581-2.188-0.929-3.461-0.939l-0.003-0h-0.111c-0.001 0-0.003 0-0.005 0-1.272 0-2.465 0.338-3.494 0.928l0.034-0.018c-1.914 1.229-3.164 3.346-3.164 5.756 0 0.098 0.002 0.196 0.006 0.294l-0-0.014c-0.042 0.47-0.445 5.4 2.031 8.278 1.078 1.243 2.659 2.025 4.423 2.025 0.035 0 0.069-0 0.103-0.001l-0.005 0zM8.278 7.117v-0.054c0.223-4.747 3.492-5.258 4.897-5.258h0.070c1.739 0.036 4.689 0.764 4.883 5.258-0 0.003-0.001 0.007-0.001 0.010 0 0.017 0.006 0.032 0.015 0.044l-0-0c0 0.046 0.459 4.554-1.586 6.922-0.769 0.876-1.891 1.427-3.142 1.427-0.059 0-0.119-0.001-0.177-0.004l0.008 0h-0.070c-0.053 0.002-0.116 0.004-0.179 0.004-1.248 0-2.367-0.551-3.128-1.422l-0.004-0.005c-2.031-2.365-1.6-6.893-1.586-6.929zM26.421 25.429v-0.189c-0.042-1.313-0.125-4.378-2.922-5.361-0.021-0.003-0.040-0.010-0.056-0.020l0.001 0c-2.034-0.589-3.81-1.445-5.404-2.545l0.062 0.040c-0.139-0.102-0.313-0.163-0.501-0.163-0.295 0-0.554 0.149-0.708 0.377l-0.002 0.003c-0.1 0.143-0.159 0.321-0.159 0.513 0 0.298 0.144 0.562 0.365 0.728l0.002 0.002c1.683 1.177 3.635 2.122 5.732 2.73l0.14 0.035c1.503 0.557 1.67 2.204 1.711 3.715-0 0.008-0.001 0.018-0.001 0.028 0 0.049 0.005 0.096 0.015 0.142l-0.001-0.004c0 0.027 0 0.059 0 0.090 0 0.69-0.051 1.367-0.149 2.030l0.009-0.075c-3.298 1.714-7.201 2.719-11.339 2.719s-8.041-1.005-11.478-2.785l0.139 0.066c-0.090-0.554-0.141-1.194-0.141-1.845 0-0.071 0.001-0.142 0.002-0.213l-0 0.011c0-0.050 0.014-0.103 0.014-0.167 0.042-1.508 0.209-3.158 1.711-3.708 2.236-0.648 4.188-1.593 5.937-2.811l-0.066 0.043c0.224-0.167 0.367-0.43 0.367-0.728 0-0.191-0.059-0.369-0.161-0.515l0.002 0.003c-0.154-0.233-0.414-0.384-0.71-0.384-0.188 0-0.362 0.061-0.502 0.165l0.002-0.002c-1.532 1.064-3.309 1.92-5.214 2.472l-0.129 0.032-0.056 0.018c-2.797 0.989-2.88 4.054-2.922 5.363v0.188c-0.005 0.121-0.008 0.263-0.008 0.405 0 0.922 0.125 1.815 0.359 2.663l-0.017-0.070c0.058 0.178 0.177 0.324 0.33 0.416l0.003 0.002c3.629 1.995 7.952 3.169 12.55 3.169s8.921-1.174 12.687-3.238l-0.137 0.069c0.15-0.102 0.266-0.244 0.332-0.411l0.002-0.006c0.2-0.774 0.315-1.662 0.315-2.577 0-0.151-0.003-0.3-0.009-0.449l0.001 0.021z"></path>
</symbol>
</defs>
</svg>
